# xmcd
#
# Track frame offsets: 
#        150
#        33969
#        53488
#        75559
#        93294
#        109018
#        124010
#        145805
#        165228
#        188820
#
# Disc length: 2745 seconds
#
# Revision: 1
# Processed by: cddbd v1.5.2PL0 Copyright (c) Steve Scherf et al.
# Submitted via: ExactAudioCopy v1.1
#
DISCID=6e0ab70a
DTITLE=Andrej Šifrer - Čakam
DYEAR=1998
DGENRE=Slo-Pop
TTITLE0=Poroke ne bo
TTITLE1=Čakam
TTITLE2=Zbogom raj (Solze svetega Lovrenca)
TTITLE3=Luknja v duši
TTITLE4=Za prijatelje (z revijskim orkestrom)
TTITLE5=Nocoj te bom ljubil
TTITLE6=Ptica z nebes (Kora)
TTITLE7=Srebro v lase, zlato v zobe
TTITLE8=Čudež pod Golico
TTITLE9=Za prijatelje (rock izvedba)
EXTD=
EXTT0=
EXTT1=
EXTT2=
EXTT3=
EXTT4=
EXTT5=
EXTT6=
EXTT7=
EXTT8=
EXTT9=
PLAYORDER=
